<?xml version="1.0" standalone="no"?>
<!DOCTYPE svg PUBLIC "-//W3C//DTD SVG 20010904//EN"
 "http://www.w3.org/TR/2001/REC-SVG-20010904/DTD/svg10.dtd">
<svg version="1.0" xmlns="http://www.w3.org/2000/svg"
 width="498.000000pt" height="323.000000pt" viewBox="0 0 498.000000 323.000000"
 preserveAspectRatio="xMidYMid meet">

<g transform="translate(0.000000,323.000000) scale(0.100000,-0.100000)"
fill="#000000" stroke="none">
<path d="M0 1615 l0 -1615 2490 0 2490 0 0 1615 0 1615 -2490 0 -2490 0 0
-1615z m2614 1135 c28 -27 59 -62 69 -79 l18 -31 -196 0 -196 0 15 29 c21 40
101 118 145 140 33 17 38 18 65 4 17 -9 53 -37 80 -63z m113 -197 c11 -54 6
-209 -10 -285 l-14 -64 33 -38 c51 -59 82 -170 51 -182 -8 -3 -45 13 -84 36
-38 22 -75 40 -82 40 -7 0 -11 20 -11 55 0 61 -19 108 -49 125 -36 18 -98 12
-127 -14 -24 -20 -28 -32 -32 -89 l-4 -67 -83 -45 c-46 -25 -88 -45 -94 -45
-36 0 11 151 62 198 25 23 25 24 10 85 -16 68 -22 256 -10 300 l7 27 215 0
214 0 8 -37z m-177 -363 c17 -17 20 -33 20 -103 0 -100 -14 -127 -65 -127 -51
0 -65 27 -65 127 0 92 16 123 65 123 14 0 34 -9 45 -20z m-130 -263 c0 -73 4
-101 20 -132 25 -49 26 -75 2 -75 -12 0 -23 14 -32 42 -20 56 -59 83 -121 83
-41 0 -53 -5 -80 -31 l-31 -31 31 -44 c16 -24 33 -57 37 -72 6 -26 4 -28 -17
-25 -16 2 -25 12 -31 34 -12 49 -50 77 -111 82 -49 4 -57 1 -90 -27 -19 -18
-39 -45 -42 -61 -5 -21 -13 -30 -26 -30 -23 0 -24 10 -4 57 31 74 81 106 164
106 49 0 57 3 83 33 45 51 122 67 191 39 15 -6 17 0 17 69 0 69 2 76 20 76 19
0 20 -7 20 -93z m210 17 c0 -69 2 -75 18 -68 63 28 145 11 190 -40 26 -30 34
-33 83 -33 83 0 133 -32 164 -106 20 -49 19 -59 -7 -55 -15 2 -24 13 -30 35
-21 83 -134 112 -202 53 -19 -17 -38 -44 -41 -60 -5 -21 -13 -30 -26 -30 -10
0 -19 5 -19 10 0 21 31 85 52 107 l21 23 -22 24 c-33 35 -74 49 -117 41 -45
-8 -92 -53 -100 -94 -5 -21 -12 -31 -25 -31 -25 0 -25 30 1 80 16 31 20 59 20
130 0 83 1 90 20 90 18 0 20 -7 20 -76z m-576 -595 c26 -12 36 -43 36 -110 l0
-39 45 0 c59 0 85 -25 85 -80 0 -57 -28 -83 -86 -78 l-44 3 0 -77 c0 -69 2
-78 19 -78 10 0 32 -5 50 -11 30 -10 31 -13 31 -65 0 -42 -4 -55 -19 -64 -34
-18 -113 -12 -161 13 -64 32 -80 69 -80 185 0 88 -1 92 -22 92 -38 0 -58 28
-58 81 0 53 18 79 55 79 23 0 24 4 27 67 3 61 6 69 28 80 31 16 62 16 94 2z
m600 0 c26 -12 36 -43 36 -110 l0 -39 45 0 c59 0 85 -25 85 -80 0 -57 -28 -83
-86 -78 l-44 3 0 -77 c0 -69 2 -78 19 -78 10 0 32 -5 50 -11 30 -10 31 -13 31
-65 0 -42 -4 -55 -19 -64 -34 -18 -113 -12 -161 13 -64 32 -80 69 -80 185 0
88 -1 92 -22 92 -38 0 -58 28 -58 81 0 53 18 79 55 79 23 0 24 4 27 67 3 61 6
69 28 80 31 16 62 16 94 2z m-1941 -177 c28 -15 50 -34 53 -48 7 -28 -19 -79
-52 -100 -24 -16 -28 -16 -73 6 -45 21 -50 21 -78 6 -45 -23 -57 -71 -28 -113
22 -31 59 -36 107 -14 48 22 62 18 102 -30 35 -41 33 -62 -11 -98 -75 -62
-183 -62 -277 0 -125 83 -128 290 -5 375 83 57 174 63 262 16z m463 2 c27 -16
62 -49 79 -73 27 -39 30 -50 30 -125 0 -74 -3 -87 -30 -132 -81 -129 -251
-151 -368 -45 -110 99 -101 274 19 360 59 43 86 51 160 48 48 -2 73 -9 110
-33z m1985 24 c84 -28 129 -90 129 -178 0 -41 -5 -56 -25 -75 -23 -24 -30 -25
-145 -25 -131 0 -147 -8 -79 -43 35 -18 102 -16 142 5 26 14 55 0 73 -33 37
-72 -6 -110 -131 -117 -113 -6 -167 10 -222 64 -101 102 -92 281 20 362 69 49
164 66 238 40z m-1551 -16 c33 -16 36 -16 53 0 22 23 99 24 121 2 24 -23 24
-405 0 -428 -22 -23 -99 -21 -122 2 -17 17 -19 17 -47 0 -96 -58 -246 31 -274
162 -37 171 130 333 269 262z m1999 0 c33 -18 35 -18 53 0 23 23 94 24 120 1
16 -15 18 -35 18 -211 0 -168 -2 -198 -17 -214 -22 -24 -96 -25 -120 0 -17 17
-19 17 -51 -1 -73 -43 -187 0 -244 93 -52 85 -47 181 15 261 60 80 155 109
226 71z m395 2 c9 -8 16 -20 16 -26 0 -5 14 2 31 16 49 42 120 35 176 -17 21
-18 24 -19 40 -5 61 53 143 61 202 19 57 -41 65 -70 69 -242 4 -180 1 -189
-72 -189 -70 0 -74 8 -78 146 -3 133 -11 154 -59 154 -24 0 -30 -5 -38 -37 -6
-21 -11 -84 -11 -140 0 -115 -5 -123 -75 -123 -71 0 -75 7 -75 133 0 70 -5
121 -13 137 -14 28 -57 39 -74 18 -6 -7 -13 -68 -15 -136 -3 -140 -10 -152
-81 -152 -79 0 -77 -5 -77 225 0 172 2 206 16 219 21 21 97 21 118 0z m-1600
-306 c9 -12 16 -38 16 -58 0 -58 -22 -80 -82 -80 -68 0 -88 18 -88 81 0 63 17
79 85 79 44 0 57 -4 69 -22z"/>
<path d="M2464 2501 c-36 -15 -64 -60 -64 -102 0 -107 159 -138 200 -39 16 38
6 91 -23 118 -26 24 -83 35 -113 23z m93 -67 c33 -52 -25 -112 -82 -86 -46 21
-41 93 8 111 30 11 56 2 74 -25z"/>
<path d="M992 1027 c-69 -74 32 -179 112 -116 34 27 37 88 4 119 -31 28 -88
27 -116 -3z"/>
<path d="M3031 1044 c-17 -14 -31 -30 -31 -35 0 -5 29 -9 64 -9 71 0 91 17 60
51 -24 26 -57 24 -93 -7z"/>
<path d="M1511 1014 c-12 -15 -21 -34 -21 -44 0 -34 39 -70 75 -70 36 0 75 36
75 70 0 34 -39 70 -75 70 -24 0 -39 -7 -54 -26z"/>
<path d="M3511 1014 c-27 -35 -27 -65 2 -92 48 -45 120 -16 120 48 0 67 -81
96 -122 44z"/>
</g>
</svg>
